<svg height="512pt" viewBox="0 0 512.13892 512" width="512pt" xmlns="http://www.w3.org/2000/svg"><path d="m411.523438 409.53125-80.214844 56.578125-48.214844 33.875c-8.863281 6.207031-21.074219 4.070313-27.304688-4.777344l-17.40625-24.574219c-3.058593-4.457031-7.867187-7.40625-13.226562-8.109374-44.714844-6.066407-74.925781-48.988282-74.925781-48.988282l-135.671875-192.597656c-9.433594-12.839844-7.429688-30.777344 4.609375-41.214844 6.347656-5.097656 14.519531-7.34375 22.582031-6.210937 8.0625 1.128906 15.296875 5.539062 20 12.183593l-8.535156-12.117187-26.195313-37.207031-9.558593-13.480469c-7.390626-10.515625-7.109376-24.605469.691406-34.816406 1.859375-2.371094 4.042968-4.46875 6.484375-6.230469 6.371093-4.496094 14.265625-6.273438 21.949219-4.945312 7.683593 1.328124 14.523437 5.65625 19.011718 12.027343l-22.527344-32.085937c-6.253906-8.589844-7.390624-19.882813-2.972656-29.546875 4.414063-9.667969 13.699219-16.199219 24.285156-17.097657 10.589844-.894531 20.835938 3.984376 26.816407 12.769532l22.613281 32.085937c-6.253906-8.59375-7.390625-19.886719-2.972656-29.550781 4.414062-9.664062 13.695312-16.199219 24.285156-17.097656 10.585938-.894532 20.835938 3.984375 26.8125 12.769531l35.671875 50.6875 71.679687 101.726563c7.074219 10.496093 15.773438 19.800781 25.769532 27.5625 5.117187 3.800781 11.761718 4.882812 17.816406 2.898437 6.058594-1.988281 10.773438-6.789063 12.648438-12.882813v-.085937c-.511719-16.042969-3.414063-29.863281-3.753907-42.410156-.929687-35.414063-4.855469-71.679688 11.1875-83.027344 16.042969-11.351563 36.09375 9.214844 38.65625 36.863281 4 42.667969 23.117188 78.761719 35.402344 130.132813 7.851563 33.28125 2.304687 75.945312-2.558594 101.972656-2.910156 15.582031.597657 31.675781 9.726563 44.628906l2.050781 2.988281c3.023437 4.234376 4.226563 9.507813 3.339844 14.636719-.882813 5.128907-3.78125 9.691407-8.050781 12.667969zm0 0" fill="#e3e7f2"/><path d="m299.914062 208.113281v.085938c-1.875 6.089843-6.589843 10.894531-12.644531 12.878906-6.058593 1.984375-12.703125.90625-17.820312-2.898437-9.996094-7.761719-18.695313-17.0625-25.769531-27.5625l-71.679688-101.714844-35.667969-50.6875c-5.707031-8.199219-15.195312-12.925782-25.175781-12.546875 2.175781-4.671875 5.527344-8.699219 9.730469-11.6875 6.382812-4.519531 14.308593-6.304688 22.011719-4.960938 7.707031 1.347657 14.558593 5.710938 19.03125 12.128907l35.671874 50.6875 71.679688 101.714843c7.074219 10.5 15.769531 19.800781 25.769531 27.5625 1.429688 1.058594 3.011719 1.890625 4.695313 2.476563.082031 1.449218.082031 2.984375.167968 4.523437zm0 0" fill="#a4c2f7"/><path d="m411.53125 409.5-80.214844 56.574219-48.210937 33.878906c-1.484375 1.023437-3.089844 1.855469-4.78125 2.472656l27.394531-19.285156 80.210938-56.574219c4.265624-2.980468 7.164062-7.546875 8.046874-12.675781.878907-5.128906-.328124-10.398437-3.351562-14.632813l-2.046875-2.984374c-9.128906-12.957032-12.636719-29.050782-9.730469-44.628907 4.863282-26.027343 10.410156-68.695312 2.5625-101.976562-12.289062-51.371094-31.40625-87.464844-35.414062-130.132813-1.707032-18.6875-11.351563-34.046875-22.445313-38.570312 1.222657-6.066406 4.546875-11.507813 9.386719-15.359375 16.042969-11.265625 36.097656 9.214843 38.65625 36.863281 4.011719 42.667969 23.125 78.761719 35.414062 130.132812 7.851563 33.28125 2.304688 75.949219-2.558593 101.972657-2.910157 15.582031.597656 31.675781 9.726562 44.632812l2.046875 2.984375c3.027344 4.234375 4.234375 9.503906 3.351563 14.632813-.882813 5.128906-3.777344 9.691406-8.042969 12.675781zm0 0" fill="#a4c2f7"/><path d="m150.230469 413.535156s30.210937 42.921875 74.925781 48.988282c5.359375.699218 10.167969 3.648437 13.226562 8.109374l17.40625 24.574219c5.097657 7.230469 14.410157 10.136719 22.714844 7.089844l-.179687.128906c.121093 0 .222656-.136719.34375-.179687 1.566406-.554688 3.054687-1.316406 4.425781-2.261719l1.707031-1.175781c-1.273437-1.050782-2.40625-2.261719-3.367187-3.601563l-17.410156-24.574219c-3.054688-4.460937-7.863282-7.410156-13.226563-8.109374-44.714844-6.066407-74.921875-48.988282-74.921875-48.988282l-135.714844-192.597656c-9.4375-12.839844-7.429687-30.777344 4.609375-41.214844 1.714844-1.363281 3.574219-2.535156 5.546875-3.5-2.40625-1.195312-4.960937-2.054687-7.597656-2.558594-8.355469-1.441406-16.925781.765626-23.550781 6.058594-12.039063 10.4375-14.042969 28.375-4.609375 41.214844zm0 0" fill="#fff"/><path d="m52.617188 136.371094-9.546876-13.480469c-7.398437-10.511719-7.121093-24.605469.683594-34.816406 1.859375-2.371094 4.042969-4.46875 6.484375-6.230469 1.300781-.886719 2.675781-1.660156 4.105469-2.320312-2.457031-1.242188-5.074219-2.136719-7.773438-2.652344-7.679687-1.335938-15.570312.445312-21.933593 4.949218-2.441407 1.761719-4.625 3.859376-6.484375 6.226563-7.804688 10.210937-8.082032 24.308594-.683594 34.816406l9.550781 13.484375 26.195313 37.203125.898437 1.265625c4.648438-1.519531 9.582031-13.414062 14.292969-12.613281" fill="#fff"/><path d="m143.234375 418.425781-63.878906-90.695312-71.777344-101.886719 13.953125-9.828125 71.773438 101.894531 63.882812 90.683594zm0 0" fill="#fff"/><g fill="#428dff"><path d="m111.070312 366.242188c.578126-.003907 1.15625-.089844 1.707032-.253907.539062-.078125 1.0625-.234375 1.554687-.46875.515625-.253906 1.011719-.539062 1.492188-.855469 1.824219-1.332031 3.082031-3.296874 3.523437-5.511718.164063-1.113282.113282-2.246094-.152344-3.335938-.441406-2.230468-1.777343-4.179687-3.699218-5.390625-1.917969-1.214843-4.253906-1.585937-6.453125-1.027343-1.09375.226562-2.132813.675781-3.046875 1.3125-2.839844 1.976562-4.207032 5.472656-3.457032 8.851562.746094 3.378906 3.460938 5.96875 6.871094 6.5625zm0 0"/><path d="m13.792969 173.074219c-15.625 13.21875-18.351563 36.269531-6.246094 52.769531l76.722656 108.867188c2.714844 3.855468 8.039063 4.777343 11.890625 2.0625 3.851563-2.714844 4.777344-8.039063 2.0625-11.890626l-76.683594-108.851562c-6.769531-9.183594-5.476562-22.003906 2.996094-29.644531 4.507813-3.625 10.316406-5.222657 16.046875-4.414063 5.726563.808594 10.867188 3.949219 14.195313 8.679688l57.464844 81.578125c1.738281 2.535156 4.707031 3.9375 7.773437 3.671875 3.0625-.265625 5.742187-2.160156 7.019531-4.957032 1.277344-2.796874.953125-6.0625-.851562-8.550781l-101.714844-144.460937c-5.300781-7.460938-5.09375-17.511719.511719-24.75 1.285156-1.675782 2.8125-3.152344 4.539062-4.375 9.441407-6.621094 22.453125-4.371094 29.125 5.035156l96.09375 136.414062c2.714844 3.851563 8.042969 4.773438 11.894531 2.054688 3.851563-2.714844 4.773438-8.042969 2.054688-11.894531l-118.6875-168.5c-6.589844-9.457031-4.332031-22.453125 5.058594-29.132813 4.53125-3.207031 10.152344-4.476562 15.617187-3.523437 5.46875.949219 10.332031 4.039062 13.515625 8.582031l118.691406 168.492188c.753907 1.035156 1.734376 1.886718 2.867188 2.484374.34375.15625.695312.292969 1.058594.410157.785156.316406 1.613281.511719 2.457031.578125.203125 0 .390625.144531.597656.144531.402344-.035156.800781-.09375 1.195313-.179687.285156-.027344.570312-.074219.851562-.136719 2.742188-.640625 4.980469-2.613281 5.964844-5.253907.984375-2.640624.578125-5.597656-1.074219-7.878906l-96.050781-136.402344c-6.648438-9.441406-4.382812-22.488281 5.058594-29.132812 9.441406-6.648438 22.484375-4.382812 29.132812 5.058594l107.351563 152.390625v.074219c7.617187 11.25 16.976562 21.21875 27.722656 29.535156 4.890625 3.550781 10.777344 5.46875 16.820313 5.476562 3.097656-.003906 6.171874-.515625 9.105468-1.519531v.222656c-2.140625 7.140625-4.984375 14.050781-8.484375 20.632813-8.617187 16.128906-10.910156 34.890625-6.425781 52.617187.640625 3.0625 2.902344 5.53125 5.898438 6.429688 2.996093.898437 6.242187.089843 8.464843-2.113281 2.222657-2.203126 3.058594-5.441407 2.183594-8.445313-3.449219-13.613281-1.699219-28.023437 4.90625-40.414063 4.464844-8.328124 7.941406-17.152343 10.351563-26.289062 1.898437-15.960938 1.585937-32.105469-.929688-47.976562-.785156-6.492188-1.527344-12.636719-1.707031-18.226563-.128907-4.796875-.316407-9.609375-.484375-14.386719-.949219-25.457031-2.023438-54.324218 8.078125-61.441406 2.433593-1.863281 5.730469-2.128906 8.433593-.683594 10.324219 7.140625 16.582032 18.816406 16.808594 31.371094 3.335938 25.648438 9.632813 50.820312 18.773438 75.015625 5.847656 17.511719 11.878906 35.601563 16.804687 56.320313 7.679688 32.46875 1.703125 75.585937-2.5625 98.398437-3.3125 17.84375.683594 36.269531 11.09375 51.140625l2.066407 2.933594c3.523437 5.007812 2.324218 11.925781-2.679688 15.453125l-128.367188 90.453125c-5.019531 3.507812-11.929687 2.308594-15.472656-2.6875l-17.296875-24.660156c-4.480469-6.367188-11.402343-10.589844-19.113281-11.65625-40.285156-5.410157-68.726562-44.886719-69.121094-45.398438l-19.632812-27.9375c-2.714844-3.851562-8.039063-4.777344-11.894532-2.0625-3.851562 2.714844-4.773437 8.039062-2.058593 11.894531l19.625 27.902344c1.324219 1.878906 32.941406 46.078125 80.761719 52.488281 3.003906.425782 5.699218 2.078125 7.441406 4.566406l17.414062 24.675782c4.296875 6.113281 10.851563 10.269531 18.210938 11.550781 7.363281 1.28125 14.933594-.417969 21.042968-4.722656l128.359376-90.453125c6.113281-4.296875 10.265624-10.847656 11.546874-18.210938 1.28125-7.363281-.417968-14.933594-4.722656-21.042968l-2.0625-2.933594c-7.855468-11.054688-10.859375-24.832032-8.320312-38.152344 5.539062-29.492188 10.445312-71.734375 2.414062-105.5-5.121094-21.453125-11.246094-39.917969-17.203125-57.777344-8.730469-22.964844-14.761719-46.863281-17.972656-71.21875-1.945313-20.609375-12.671875-38.800781-26.691406-45.269531-8.222657-4.027344-18.003907-3.171875-25.402344 2.226563-17.664063 12.449218-16.53125 43.332031-15.308594 76.03125.171875 4.703124.359375 9.457031.476563 14.191406.164062 6.398437.949218 12.910156 1.785156 19.824218.808594 6.765626 1.636719 13.652344 1.96875 20.886719-1.09375 2.941407-3.453125 5.234375-6.425781 6.238281-3.515625 1.230469-7.410157.640626-10.410157-1.570312-9.210937-7.207031-17.238281-15.8125-23.789062-25.503906l-.042969-.09375-107.382812-152.421875c-8.046875-11.425781-21.714844-17.511719-35.585938-15.84375-13.871093 1.671875-25.707031 10.824219-30.8125 23.828125l-4.351562-6.167969c-12.078125-17.144531-35.769531-21.253906-52.917969-9.175781-17.144531 12.082031-21.25 35.773437-9.171875 52.917968l4.359375 6.1875c-13.957031.429688-26.554688 8.488282-32.792969 20.984376-6.238281 12.496093-5.113281 27.40625 2.929688 38.824218l26.015625 37.007813c-8.292969.214843-16.289063 3.132812-22.765625 8.3125zm0 0"/><path d="m171.011719 383.386719c3.183593 0 6.105469-1.777344 7.570312-4.605469 1.464844-2.828125 1.234375-6.238281-.601562-8.84375l-33.917969-48.160156c-2.714844-3.855469-8.039062-4.777344-11.890625-2.0625-3.855469 2.714844-4.777344 8.039062-2.0625 11.890625l33.921875 48.199219c1.605469 2.253906 4.207031 3.589843 6.980469 3.582031zm0 0"/><path d="m211.484375 425.753906c3.003906.519532 6.058594-.601562 8.011719-2.945312 1.949218-2.339844 2.503906-5.546875 1.453125-8.40625-1.050781-2.863282-3.550781-4.945313-6.554688-5.464844-5.3125-.628906-10.234375-3.113281-13.894531-7.015625-2.746094-3.828125-8.078125-4.707031-11.90625-1.960937-3.828125 2.75-4.707031 8.082031-1.957031 11.910156 6.203125 7.632812 15.09375 12.601562 24.847656 13.882812zm0 0"/><path d="m369.742188 401.347656 8.03125-5.648437c2.492187-1.757813 3.851562-4.710938 3.574218-7.75-.277344-3.035157-2.152344-5.691407-4.921875-6.96875-2.769531-1.277344-6.007812-.984375-8.5.777343l-8.03125 5.648438c-2.613281 1.703125-4.089843 4.703125-3.847656 7.8125.242187 3.113281 2.167969 5.847656 5.015625 7.125 2.851562 1.277344 6.167969.894531 8.65625-.996094zm0 0"/><path d="m281.492188 463.53125 56.164062-39.570312c3.855469-2.714844 4.773438-8.039063 2.058594-11.894532-2.71875-3.851562-8.042969-4.773437-11.894532-2.054687l-56.167968 39.566406c-3.851563 2.71875-4.773438 8.042969-2.054688 11.898437 2.714844 3.851563 8.042969 4.773438 11.894532 2.054688zm0 0"/><path d="m119.605469 512.070312c4.714843 0 8.535156-3.820312 8.535156-8.535156 0-4.710937-3.820313-8.53125-8.535156-8.53125-56.527344-.0625-102.339844-45.871094-102.398438-102.402344 0-4.710937-3.820312-8.53125-8.535156-8.53125-4.710937 0-8.53125 3.820313-8.53125 8.53125.070313 65.953126 53.515625 119.398438 119.464844 119.46875zm0 0"/><path d="m51.339844 384.070312c0-4.714843-3.820313-8.535156-8.535156-8.535156-4.710938 0-8.53125 3.820313-8.53125 8.535156.058593 51.816407 42.050781 93.804688 93.867187 93.867188 4.710937 0 8.53125-3.820312 8.53125-8.535156 0-4.710938-3.820313-8.53125-8.53125-8.53125-42.398437-.046875-76.753906-34.40625-76.800781-76.800782zm0 0"/><path d="m392.671875.0703125c-4.710937 0-8.53125 3.8203125-8.53125 8.5312495 0 4.714844 3.820313 8.535157 8.53125 8.535157 56.527344.0625 102.339844 45.871093 102.398437 102.398437 0 4.714844 3.824219 8.535156 8.535157 8.535156 4.714843 0 8.535156-3.820312 8.535156-8.535156-.074219-65.949218-53.519531-119.394531-119.46875-119.4648435zm0 0"/><path d="m384.140625 51.269531c42.394531.046875 76.75 34.402344 76.796875 76.800781 0 4.710938 3.820312 8.53125 8.535156 8.53125 4.710938 0 8.53125-3.820312 8.53125-8.53125-.058594-51.816406-42.050781-93.804687-93.863281-93.867187-4.714844 0-8.535156 3.820313-8.535156 8.53125 0 4.714844 3.820312 8.535156 8.535156 8.535156zm0 0"/></g></svg>